<?xml version="1.0" encoding="UTF-8"?>
<svg id="Livello_1" xmlns="http://www.w3.org/2000/svg" version="1.1" viewBox="0 0 1600 1600">
  <!-- Generator: Adobe Illustrator 30.6.0, SVG Export Plug-In . SVG Version: 2.1.4 Build 109)  -->
  <defs>
    <style>
      .st0 {
        fill: #000201;
      }

      .st1 {
        fill: #8a8b8a;
      }

      .st2 {
        fill: #010302;
      }

      .st3 {
        fill: #696c6c;
      }

      .st4 {
        fill: none;
      }

      .st5 {
        fill: #898d8c;
      }

      .st6 {
        fill: #010303;
      }
    </style>
  </defs>
  <g id="Oggetto_generativo">
    <path class="st4" d="M778.96.31l-19.4.85c-62.18,2.73-123.29,12.75-183.14,30.73-31.44,9.44-62.43,20.23-92.58,33.3-77.38,33.55-148.8,79.01-212.3,134.42-60.24,52.57-115.02,118.35-156.17,186.85C46.34,501.37,7.98,626.64,1.16,760.3l-.99,19.45L0,0l778.96.31Z"/>
    <path class="st4" d="M825.78,0h774.22v776.56c-.55-.11-.79-.64-.8-1.54l-.21-14.77-.53-8.12c-6.68-102.84-31.17-201.43-75.44-294.51l-24.3-47.07c-47.45-83.55-106.28-157.23-179.74-219.25l-26.9-21.84c-50.1-39.06-104.26-72.22-162.41-98.36C1038.28,30.04,939.65,5.18,839.7,1.31c-5.02-1.11-9.37-.48-13.92-.49-.68-.24-.67-.51,0-.82Z"/>
    <path class="st4" d="M780.47,1600H0v-774.22c.21-.1.91.37.93.79-.71,7.09.18,13.17.56,20.39,2.94,56.73,12.53,112.15,27.55,166.91,22.76,82.96,61.41,166.09,109.98,236.99,71.36,104.16,167.18,191.23,278.17,251.37l57,28.33c89.52,39.89,189.95,64.26,287.72,68.25l17.77.33c.47,0,.89.61.79.86Z"/>
    <path class="st4" d="M1600,832.81v767.19h-774.22c-.68-.25-.66-.52.01-.82l10.8-.19,8.79-.47,67-6.53,72.25-13.7,50.43-13.7c65.26-19.95,126.68-47.99,184.82-83.79,97.8-60.22,181.03-140.77,245.17-236.09,45.67-67.87,80.33-142.48,103.06-221.02,15.84-54.72,27.8-120.17,30.47-176.78l.66-14.09c.22-.68.48-.67.76,0Z"/>
    <g>
      <path class="st0" d="M804.69,0c7.07.25,14.1.53,21.09.82,98.17-1.15,200.9,24.04,292,63.36,269.09,116.15,457.07,374.98,480.71,668.29.5,15.52,1,30.22,1.52,44.09v44.53c-.32,3.94-.57,7.84-.76,11.71.2,71.38-15,149.09-37.99,218.39-79.94,240.95-270.07,431.72-511.78,510.48-72.73,22.36-148.59,38.08-223.67,37.5-5.08.3-10.29.58-15.64.82h-29.69c-15.2-.71-31.67-1.22-49.41-1.55-275.34-23.18-527.22-192.68-649.95-443.82C31,1052.9,1.05,937.91,0,825.78l.16-46.03c1.03-212.18,99.75-426.72,258.55-570.78C400.38,80.46,590.05.03,778.96.31l25.73-.31Z"/>
      <circle class="st4" cx="800.01" cy="800.08" r="749.68"/>
      <g>
        <path class="st3" d="M825.78,0v.82s-20.27-.07-20.27-.07c-.55,0-.86-.43-.82-.76h21.09Z"/>
        <path class="st1" d="M825.79,1599.18v.82h-15.64c-.04-.33.27-.75.81-.75l14.83-.07Z"/>
        <path class="st5" d="M1600,832.81h-.76s-.07-10.21-.07-10.21c0-.84.33-1.44.83-1.51v11.72Z"/>
        <g>
          <path class="st2" d="M971.67,665.5l-114.97-.04,45.67-102.15,37.98-84.31-29.43.11c-8.47.03-16.48,1.85-23.9,5.5-11.77,6.24-19.61,16.92-21.17,30.25-.61.47-2.03.29-2.42-.15l.09-38.59h104.44s-68.87,153.25-68.87,153.25l-14.91,33.14,42.4-.31c9.97-.07,19.72-3.67,27.69-9.47,8.49-6.17,12.91-15.82,14.79-25.86.76-.4,1.77-.43,2.6-.15l.02,38.79Z"/>
          <path class="st2" d="M1093.38,626.6l.03,38.91-114.84-.04,83.51-186.22-28.49-.14c-6.08-.03-11.78.87-17.49,2.57-15.36,4.55-26.37,17.19-28.45,33.15-.29.5-2.4.45-2.64-.02l-.03-38.68h104.8s-32.38,71.98-32.38,71.98l-51.53,114.34,41-.16c11.13-.04,21.45-3.56,30.06-10.34,7.29-6.52,11.82-14.97,13.64-24.63.07-.37,1.13-1.32,2.81-.72Z"/>
          <path class="st6" d="M693.03,627.12l.1,38.39-103.02-.02c-.38-1-.37-1.85-.11-2.96l10.78-.13-.03-183.23-10.75-.27c-.37-.28-.5-2.08-.05-2.62l43.14-.15c.3,1.15.24,2.11-.04,3l-10.63.06.03,183.26,25.11-.18c11.12-.08,21.43-4.32,29.97-11.26,6.9-6.45,10.94-14.72,12.85-23.91.15-.72,2.65-.77,2.65.03Z"/>
          <g>
            <path class="st2" d="M794.66,592.85l-53.18-.18-22.21,69.84,14.25.26c.89.02.9,2.66-.03,2.66l-33.16.13c-.2-1.11-.16-1.8.13-2.79l15.66-.08,47.74-149.45,11.08-35.25c.33-1.05.5-1.76,1.41-1.99.62-.16,1.95-.27,2.33.92l44.84,139.3,14.8,46.21,11.39.09-.06,3.01-44.01-.08c-.45-.83-.45-1.93-.07-2.94l11.68-.11-22.59-69.56Z"/>
            <polygon class="st4" points="793.71 589.61 742.59 589.65 768.13 509.89 793.71 589.61"/>
          </g>
          <g>
            <path class="st2" d="M550,662.3l-22.47-69.59-53.05-.07-22.2,69.9,14.64.16c.21.98.25,1.73.02,2.86l-33.25-.07c-.6,0-.61-2.67,0-2.68l15.42-.33,58.66-184.23c.55-1.72.63-2.24,2.01-2.27,1.25-.03,1.73.53,2.22,2.06l32.73,102.25,26.25,82.14,11.06.17c.6,0,.47,2.9-.12,2.9h-43.27c-.29-1.22-.2-2.24.2-3.08l11.16-.11Z"/>
            <polygon class="st4" points="526.53 589.62 475.7 589.67 500.97 509.81 526.53 589.62"/>
          </g>
          <g>
            <path class="st2" d="M396.65,662.6c.76.02.67,2.79.08,2.86l-43.48.04c-.29-1.01-.27-1.84,0-3.02l10.83-.16-.02-183.15-10.26-.14c-.63-.04-.65-2.83.06-2.84l81.26.12c11.66.02,21.47,6.99,27.06,17.14,8.88,16.11,8.4,35.99.18,52.39-7.69,12.74-20.83,20.59-35.82,20.64l-40.88.12.07,95.79,10.93.22Z"/>
            <path class="st4" d="M442.76,490.12c11.05,23.28,10.61,73.52-18,73.65l-39.1.18-.02-84.91,43.74.29c6.33.04,10.57,5.57,13.38,10.79Z"/>
          </g>
          <g>
            <path class="st0" d="M716.43,1118.67l23.39.35c.47,1.9.62,3.86-.05,6.33h-92.77c-.55-2.5-.42-4.39-.07-6.34l23.37-.2.1-391.36-48.87-.14-27.58,85.52-63.85,199.29-35.94,112.41c-2.71.77-5.12.78-7.75-.11l-55.57-173.31-71.69-223.64-23.04-.25.06-6.22,93.35-.03.1,6.3-24.71.06,18.13,55.11,30.11,93.38,56.31,176.27,9.15-26.68,95.58-298.01-31.87-.14.05-6.26h157.91s.05,6.33.05,6.33l-23.7-.02-.09,194.58-.11,196.78Z"/>
            <path class="st0" d="M1186.85,933.03c-3.91-4.35-9.24-6.31-15.07-6.33l-66-.19-.13,192.37,47.63-.55c11.98-.14,23.26-2.01,34.72-5.25,34.79-10.55,57.01-34.74,62.73-70.83,1.91-.6,3.45-.58,5.64-.44l-.03,83.25-219.5.16c-.73-2.36-.55-4.26-.11-6.37l22.5-.12.02-391.33-22.55-.12c-.54-2.09-.73-4.07.07-6.27h219.6s-.01,82.67-.01,82.67c-2.31.43-4.1.4-6.18-.03-5.21-41.74-37.38-69.66-78.53-74.47-6.44-1.45-12.68-1.71-19.36-1.72l-46.6-.07.06,192.81,65.78-.2c9.19-.03,16.76-5.44,19.92-13.58,1.43-4.49,1.45-8.67,1.56-13.41,2.13-.4,4.02-.45,6.22.04l-.06,60.77c-2.13.51-4.05.48-6.31.01.11-7.5-1.33-14.54-6.03-20.8Z"/>
            <path class="st2" d="M934.94,1125.33h-92.71c-.67-2.22-.54-3.85-.23-6.22l23.33-.14-.02-391.3-26.94.03c-11.28.01-21.99,2.05-32.34,6.51-30.64,13.21-40.48,47.86-39.17,80.06-2.16.5-4.13.4-6.45.09l-.23-93.37h256.21s-.29,93.37-.29,93.37l-6.53.05c1.57-38.75-13.45-77.78-54.55-85.04l-15.28-1.68-28.41-.07.02,391.26,23.64.17-.06,6.27Z"/>
          </g>
        </g>
        <g>
          <path class="st2" d="M1229.15,633.77c-19.07,30.53-56.79,44.75-87.71,23.94-17.5-11.78-29.58-29.16-35.65-49.44-11.86-39.64-5.15-86.93,25.43-116.01,22.59-21.48,54.97-24.15,79.34-4.34,12.29,9.99,21.46,22.55,27.48,37.41,14.31,35.35,11.35,76.03-8.89,108.44Z"/>
          <path class="st4" d="M1185.93,662.03c-11.71,5.63-24.42,2.56-33.53-5.88-37.8-35.06-39-136.43,1.38-171.74,11.1-9.71,26.53-10.22,37.95-1.14,6.1,4.85,10.91,10.5,14.69,17.37,19.18,34.84,21.12,80.75,9.68,118.53-4.74,15.64-15.43,35.77-30.18,42.86Z"/>
        </g>
      </g>
    </g>
  </g>
</svg>
