<?xml version="1.0" encoding="UTF-8"?>
<svg id="Livello_1" xmlns="http://www.w3.org/2000/svg" version="1.1" viewBox="0 0 1600 1600">
  <!-- Generator: Adobe Illustrator 30.6.0, SVG Export Plug-In . SVG Version: 2.1.4 Build 109)  -->
  <defs>
    <style>
      .st0 {
        fill: none;
      }
    </style>
  </defs>
  <path d="M826,0c-.53.3,1.7.96,2.23.96l17.49.12,6.8.84c400.58,25.78,720.97,346.96,745.67,747.53.77,5.35.86,12.49.82,20.68l.98,1.86v56l-.8,3.93-1.02,20.17c-18.35,288.08-192.16,544.51-452.02,669.1-90.16,43.22-189.05,69.77-289.92,76.81l-9.56.67-19.65.37-1.04.96h-52c.51-.3-1.68-.93-2.3-.94l-17.43-.32-10.52-.74c-101.36-7.1-200.74-33.82-291.27-77.44C193.33,1395.69,20.13,1139.69,1.81,852.11l-1.02-22.1c-.02-.49-.4-2.4-.78-2.01l.15-55.91,1.35-18.43C24.3,351.43,345.07,27.85,747.56,1.89l6.49-.68,20.03-.92,51.92-.29ZM1101.92,1486.07c300.23-131.46,478.87-445.2,443.45-767.7-37.86-344.68-310.38-622.78-658-662.84-54.64-6.3-111.71-6.61-166.55-.91C377.55,90.3,104.42,358.66,57.32,696.68c-46.38,332.87,136.73,660.74,449.26,793.07,191.88,81.25,404.16,80.04,595.34-3.67Z"/>
  <path class="st0" d="M826,0h774v772l-.98-1.86c.04-8.19-.05-15.33-.82-20.68C1573.5,348.88,1253.11,27.7,852.53,1.92l-6.8-.84-17.49-.12c-.53,0-2.76-.67-2.23-.96Z"/>
  <path class="st0" d="M1600,828v772h-774l1.04-.96,19.65-.37,9.56-.67c100.87-7.03,199.76-33.58,289.92-76.81,259.86-124.58,433.67-381.01,452.02-669.1l1.02-20.17.8-3.93Z"/>
  <path class="st0" d="M774,1600H0v-772c.38-.39.76,1.52.78,2.01l1.02,22.1c18.33,287.59,191.52,543.59,450.68,668.46,90.53,43.62,189.91,70.34,291.27,77.44l10.52.74,17.43.32c.62.01,2.81.64,2.3.94Z"/>
  <path class="st0" d="M774.08.29l-20.03.92-6.49.68C345.07,27.85,24.3,351.43,1.5,753.66l-1.35,18.43L0,0l774.08.29Z"/>
  <path class="st0" d="M1101.92,1486.07c-191.18,83.71-403.46,84.92-595.34,3.67C194.06,1357.42,10.94,1029.55,57.32,696.68,104.42,358.66,377.55,90.3,720.82,54.62c54.83-5.7,111.9-5.39,166.55.91,347.63,40.06,620.15,318.16,658,662.84,35.42,322.49-143.22,636.24-443.45,767.7ZM1213.33,651.64c49.48-44.15,42.38-137.93-10.66-169.18-17.52-10.32-38.66-10.97-56.6-1.12-56.08,30.83-62.18,129.35-10.55,172.02,23.05,19.05,55.04,18.59,77.81-1.73ZM395.76,662.5l-10.01.2v-96.03s41.78-.28,41.78-.28c19.04-.13,34.62-13.32,39.18-31.61,3.22-12.93,2.22-26.34-3.06-38.31-5.79-13.1-17.5-20.43-31.65-20.42l-78.63.07.21,2.96,10.67.13v182.97s-11.02.76-11.02.76l.45,2.59,43.56-.03-1.47-2.99ZM550.32,662.44c-4.62.99-8.93-2.25-12.53,2.94l42.21.21c.84,0,2.92-.44,2.54-1-.26-.37-1.36-1.73-1.81-1.76l-9.89-.54-59.12-185.76-3.36.04-59.67,186.26-15.69.34-.02,2.23,34.21.14c-.22-.94-1.03-2.56-1.49-2.56l-13.73-.03,22.46-70.47h53.22s22.67,69.98,22.67,69.98ZM691.63,625.4c-4.63,16.19-11.72,27.6-26.38,32.99-8.59,3.11-17.88,4.28-27.22,4.17l-15.98-.19v-183.19s9.87-.14,9.87-.14c.72-.01,1.25-2.22,1-2.9l-43.53-.05.2,2.81,11.17.61v182.93s-10.9.09-10.9.09l.39,2.99h102.92c-1.07-13.66,1.65-26.3-1.54-40.12ZM794.83,592.49l22.62,70.03-11.61.43-.35,2.46,42.46.16c.51,0,1.92-.81,1.81-1.3s-1.31-1.68-1.88-1.68l-9.8-.03-59.44-186.65-3.42,1.47-59.4,185.45-15.69.23.12,2.49,34.17-.17-.34-2.28-14.92-.31,22.4-70.37,53.27.04ZM971.4,665.51c-.85-14.74,1.36-26.71-1.45-40.38-4.35,14.98-10.19,26.17-23.66,32.28-8.43,3.82-17.8,5.25-27.28,5.23l-35.18-.08,84.03-186.52-104.69-.06.04,38.74h2.64c2.36-22.29,22.27-35.68,44.14-35.72l30.22-.04-83.7,186.56h114.9ZM1093.38,665.54c-1.02-13.66,1.59-26.32-1.57-40.33-4.64,16.45-12.22,28.76-27.81,33.89-7.03,2.31-14.67,3.58-22.2,3.56l-36.12-.11,84.01-186.51-104.68-.07-.02,38.76,2.64.09c2.41-22.04,22.21-35.76,43.36-35.74l30.99.03-83.61,186.38,115.02.05ZM716.43,1118.77v-391.64s23.6,0,23.6,0l-.2-6.1-157.6-.02-.2,6.09,32.27.09-104.57,325.62-104.5-325.54,24.24-.19-.09-6.02-93.24-.04.19,6.16,22.81-.06,127.36,398,7.29-.49,127.64-397.59,48.97.22v391.67s-23.62.18-23.62.18l.15,6.15h92.9s.19-6.08.19-6.08l-23.59-.4ZM934.86,1125.24l.22-6.19-23.7-.03v-391.41s35.53.37,35.53.37c24.37,1.32,44.57,14.87,54.16,37.04,6.81,15.74,8.97,32.25,8.26,49.45l6.65.08v-93.52s-255.73,0-255.73,0v93.38s6.91.04,6.91.04c-3.1-42.86,17.03-83.77,61.94-86.43l36.28-.31v391.24s-23.35.19-23.35.19c-.61,1.74-.38,4.99.85,6.15l91.98-.03ZM1191.68,940.03l1.5,13.94,6.15-.17.02-60.77-6.32-.13-.82,11.14c-2.44,9.36-10.05,16.09-20.28,16.1l-66.45.09v-193.06s50.55.06,50.55.06c14.18.02,27.57,3.32,40.62,7.99,29.78,11.15,50.32,36.81,53.6,68.49l6.19-.4-.02-82.3h-220.08s-.19,6.06-.19,6.06l23.32.08v391.28s-23.37.39-23.37.39c.13,2.53.33,4.69.76,6.41l219.59.02v-82.74c-1.72-.6-4.18-.74-6.08-.41-3.7,31.69-24.45,57.13-54.09,68.24-15.12,5.53-30.6,8.17-46.85,8.2l-43.94.1v-192.01s68.45.08,68.45.08c8.61.01,14.4,5.72,17.76,13.3Z"/>
  <polygon points="716.43 1118.77 740.02 1119.17 739.84 1125.25 646.93 1125.26 646.78 1119.11 670.39 1118.92 670.4 727.25 621.43 727.03 493.79 1124.62 486.5 1125.12 359.14 727.11 336.33 727.17 336.14 721.01 429.38 721.05 429.47 727.07 405.23 727.27 509.73 1052.8 614.3 727.18 582.04 727.09 582.24 721.01 739.84 721.03 740.03 727.13 716.44 727.13 716.43 1118.77"/>
  <path d="M1191.68,940.03c-3.36-7.58-9.15-13.29-17.76-13.3l-68.46-.08v192.01s43.94-.1,43.94-.1c16.25-.04,31.72-2.67,46.85-8.2,29.64-11.12,50.39-36.56,54.09-68.24,1.9-.33,4.36-.2,6.07.41v82.74s-219.58-.02-219.58-.02c-.42-1.72-.62-3.87-.76-6.41l23.38-.39v-391.28s-23.33-.08-23.33-.08l.19-6.07h220.08s.02,82.31.02,82.31l-6.19.4c-3.28-31.68-23.82-57.34-53.6-68.49-13.05-4.68-26.43-7.98-40.62-7.99l-50.56-.06v193.06s66.46-.09,66.46-.09c10.23-.01,17.84-6.75,20.28-16.1l.82-11.14,6.32.13-.02,60.77-6.15.17-1.5-13.94Z"/>
  <path d="M934.86,1125.24l-91.98.03c-1.23-1.15-1.46-4.4-.85-6.15l23.35-.19v-391.24s-36.27.31-36.27.31c-44.91,2.66-65.04,43.57-61.94,86.43l-6.9-.04v-93.38s255.74,0,255.74,0v93.52s-6.66-.08-6.66-.08c.7-17.2-1.46-33.71-8.26-49.45-9.59-22.18-29.79-35.72-54.16-37.04l-35.54-.37v391.41s23.71.03,23.71.03l-.22,6.19Z"/>
  <path d="M1213.33,651.64c-22.77,20.31-54.76,20.78-77.81,1.73-51.63-42.67-45.53-141.19,10.55-172.02,17.93-9.86,39.08-9.2,56.6,1.12,53.05,31.25,60.15,125.03,10.66,169.18ZM1193.07,657.34c11.09-9.59,17.88-22.05,22.4-36.09,23.91-74.26-11.44-160.55-52.78-142.59-8.33,3.62-14.7,9.88-19.66,17.44-22.51,34.3-24.07,85.67-11.87,124.48,4.21,13.39,10.54,25.33,20.18,34.85,11.84,11.67,28.67,13.21,41.73,1.92Z"/>
  <path d="M971.4,665.51h-114.9s83.7-186.56,83.7-186.56l-30.22.04c-21.87.03-41.78,13.43-44.14,35.73h-2.64s-.04-38.75-.04-38.75l104.69.06-84.03,186.52,35.18.08c9.48.02,18.86-1.41,27.28-5.23,13.48-6.11,19.31-17.3,23.66-32.28,2.81,13.67.6,25.64,1.45,40.38Z"/>
  <path d="M1093.38,665.54l-115.02-.05,83.61-186.38-30.99-.03c-21.15-.02-40.95,13.7-43.36,35.74l-2.64-.09.02-38.76,104.68.07-84.01,186.51,36.12.11c7.53.02,15.17-1.25,22.2-3.56,15.59-5.12,23.17-17.43,27.81-33.89,3.16,14.01.55,26.67,1.57,40.33Z"/>
  <path d="M395.76,662.5l1.47,2.99-43.56.03-.45-2.59,11.02-.76v-182.97s-10.67-.13-10.67-.13l-.21-2.96,78.63-.07c14.16-.01,25.87,7.32,31.65,20.42,5.28,11.96,6.28,25.38,3.06,38.31-4.56,18.29-20.14,31.48-39.18,31.61l-41.79.28v96.03s10.02-.2,10.02-.2ZM443.57,491.46c-2.65-4.67-6.5-11.97-12.74-12l-45.11-.27.02,84.68,39.18-.05c27.36-.03,29.4-47.66,18.64-72.35Z"/>
  <path d="M691.63,625.4c3.19,13.82.47,26.45,1.54,40.12h-102.92s-.39-3-.39-3l10.89-.09v-182.93s-11.16-.61-11.16-.61l-.2-2.81,43.53.05c.25.69-.28,2.89-1,2.9l-9.87.14v183.19s15.98.19,15.98.19c9.34.11,18.63-1.06,27.22-4.17,14.66-5.39,21.75-16.81,26.38-32.99Z"/>
  <path d="M550.32,662.44l-22.67-69.97h-53.22s-22.46,70.46-22.46,70.46l13.73.03c.47,0,1.27,1.63,1.49,2.56l-34.21-.14.02-2.23,15.69-.34,59.67-186.26,3.36-.04,59.12,185.76,9.89.54c.45.02,1.55,1.39,1.81,1.76.39.56-1.69,1.01-2.54,1l-42.21-.21c3.6-5.18,7.91-1.95,12.53-2.94ZM526.62,589.5l-25.65-79.29-25.6,79.42,51.25-.13Z"/>
  <path d="M794.83,592.49l-53.27-.04-22.4,70.37,14.92.31.34,2.28-34.17.17-.12-2.49,15.69-.23,59.4-185.45,3.42-1.47,59.44,186.65,9.8.03c.57,0,1.77,1.19,1.88,1.68s-1.3,1.31-1.81,1.3l-42.46-.16.35-2.46,11.61-.43-22.62-70.03ZM793.77,589.55l-25.65-79.35-25.58,79.47,51.23-.12Z"/>
  <path class="st0" d="M1193.07,657.34c-13.06,11.3-29.89,9.76-41.73-1.92-9.65-9.51-15.97-21.46-20.18-34.85-12.2-38.81-10.64-90.17,11.87-124.48,4.96-7.56,11.32-13.82,19.66-17.44,41.34-17.95,76.69,68.33,52.78,142.59-4.52,14.04-11.31,26.5-22.4,36.09Z"/>
  <path class="st0" d="M443.57,491.46c10.75,24.69,8.72,72.32-18.64,72.35l-39.18.05-.02-84.68,45.11.27c6.24.04,10.09,7.34,12.74,12Z"/>
  <polygon class="st0" points="526.62 589.5 475.37 589.63 500.97 510.21 526.62 589.5"/>
  <polygon class="st0" points="793.77 589.55 742.54 589.67 768.12 510.2 793.77 589.55"/>
</svg>
